#!OML:ASF H:\ManfredETheater\Project 1\Capture day 1\Session 1\subject.ASF
:FULLY-SPECIFIED
:DEGREES
293
root 1.78434 17.0326 21.1994 -162.923 -5.27059 182.022
lowerback 9.7778 0.225754 4.3493
upperback -0.899227 0.850553 3.36836
thorax -6.43194 0.248552 0.971457
lowerneck -16.6679 -2.93023 -3.65146
upperneck 9.97819 -3.28091 1.18038
head 5.80981 -1.64828 0.642426
rclavicle -6.36111e-015 -3.18055e-014
rhumerus -35.9696 -0.361559 -83.0816
rradius 42.6995
rwrist -3.94293
rhand -19.5522 -11.7774
rfingers 7.12502
rthumb 6.77208 -41.6491
lclavicle -6.36111e-015 -3.18055e-014
lhumerus -38.9219 -3.69637 91.8258
lradius 52.7908
lwrist -3.73264
lhand -14.5734 5.67626
lfingers 7.12502
lthumb 11.5762 35.3365
rfemur -17.5854 3.18541 26.7787
rtibia 31.5676
rfoot -28.0107 -11.3905
rtoes 10.6007
lfemur -54.0535 -1.68343 -15.8265
ltibia 63.7488
lfoot -14.8304 -1.69291
ltoes -9.52775
294
root 1.78898 17.0043 21.0209 -162.726 -5.35508 182.074
lowerback 9.86282 0.290165 4.42087
upperback -0.879797 0.947686 3.36032
thorax -6.45701 0.292472 0.908061
lowerneck -16.6571 -3.0253 -3.76028
upperneck 9.70306 -3.39307 1.24287
head 5.72616 -1.70162 0.67029
rclavicle 5.56597e-015 -1.90833e-014
rhumerus -35.7294 0.113194 -83.3357
rradius 43.6255
rwrist -4.34072
rhand -19.5501 -11.7192
rfingers 7.12502
rthumb 6.77417 -41.5908
lclavicle 5.56597e-015 -1.90833e-014
lhumerus -38.9815 -3.61743 91.7998
lradius 52.8034
lwrist -3.60742
lhand -14.6975 5.43625
lfingers 7.12502
lthumb 11.4565 35.1032
rfemur -16.8839 3.26058 26.976
rtibia 31.0837
rfoot -28.3214 -11.7159
rtoes 10.404
lfemur -55.0331 -1.67002 -15.8622
ltibia 62.5624
lfoot -15.1654 -1.49033
ltoes -9.84184
295
root 1.79307 16.9733 20.8406 -162.53 -5.45134 182.136
lowerback 9.95428 0.351242 4.50444
upperback -0.856366 1.04174 3.35843
thorax -6.48118 0.334245 0.844704
lowerneck -16.648 -3.11803 -3.86547
upperneck 9.41308 -3.50237 1.29812
head 5.63811 -1.75423 0.695688
rclavicle 8.74653e-015 5.32743e-014
rhumerus -35.4837 0.565305 -83.5698
rradius 44.596
rwrist -4.75022
rhand -19.5475 -11.6825
rfingers 7.12502
rthumb 6.77669 -41.5541
lclavicle 8.74653e-015 5.32743e-014
lhumerus -39.0477 -3.53173 91.7713
lradius 52.8111
lwrist -3.47064
lhand -14.8377 5.18617
lfingers 7.12502
lthumb 11.3213 34.8606
rfemur -16.1682 3.3253 27.1888
rtibia 30.5853
rfoot -28.6305 -12.0385
rtoes 10.1773
lfemur -55.9948 -1.66117 -15.8898
ltibia 61.4281
lfoot -15.4422 -1.29303
ltoes -10.1046
296
root 1.7967 16.9393 20.6584 -162.338 -5.56268 182.211
lowerback 10.0492 0.40764 4.60165
upperback -0.824805 1.13059 3.36373
thorax -6.49835 0.372838 0.781887
lowerneck -16.6406 -3.20904 -3.97226
upperneck 9.1058 -3.60948 1.35279
head 5.54507 -1.80613 0.721542
rclavicle -3.4191e-014 -7.15625e-014
rhumerus -35.2308 1.01026 -83.7871
rradius 45.6119
rwrist -5.17286
rhand -19.5615 -11.6454
rfingers 7.12502
rthumb 6.76316 -41.5174
lclavicle -3.4191e-014 -7.15625e-014
lhumerus -39.1148 -3.43805 91.7383
lradius 52.8141
lwrist -3.32071
lhand -14.9912 4.91277
lfingers 7.12502
lthumb 11.1732 34.5953
rfemur -15.4175 3.37798 27.4205
rtibia 30.0365
rfoot -28.9209 -12.3575
rtoes 9.91222
lfemur -56.9341 -1.65705 -15.9069
ltibia 60.3526
lfoot -15.6587 -1.14649
ltoes -10.2601
297
root 1.79979 16.902 20.4743 -162.151 -5.68614 182.301
lowerback 10.147 0.461192 4.71716
upperback -0.784103 1.21705 3.37458
thorax -6.50695 0.409482 0.714843
lowerneck -16.6469 -3.2987 -4.07325
upperneck 8.78751 -3.71545 1.40112
head 5.45079 -1.85801 0.744536
rclavicle -9.54166e-015 -2.38542e-014
rhumerus -34.9657 1.43801 -83.9905
rradius 46.675
rwrist -5.59008
rhand -19.6042 -11.6153
rfingers 7.12502
rthumb 6.72187 -41.4886
lclavicle -9.54166e-015 -2.38542e-014
lhumerus -39.1841 -3.345 91.7013
lradius 52.8205
lwrist -3.14914
lhand -15.1617 4.6255
lfingers 7.12502
lthumb 11.0088 34.3168
rfemur -14.6509 3.41719 27.6725
rtibia 29.4773
rfoot -29.2157 -12.665
rtoes 9.61014
lfemur -57.8611 -1.65369 -15.9125
ltibia 59.3727
lfoot -15.8313 -1.06785
ltoes -10.3386
298
root 1.80228 16.861 20.288 -161.968 -5.82212 182.406
lowerback 10.2459 0.511844 4.85025
upperback -0.735546 1.30093 3.39167
thorax -6.50731 0.444121 0.644794
lowerneck -16.6529 -3.38687 -4.17691
upperneck 8.45279 -3.82004 1.45248
head 5.3516 -1.9094 0.769243
rclavicle -5.56597e-015 -3.65764e-014
rhumerus -34.6936 1.85072 -84.1801
rradius 47.7896
rwrist -5.99469
rhand -19.6859 -11.5768
rfingers 7.12502
rthumb 6.64305 -41.4526
lclavicle -5.56597e-015 -3.65764e-014
lhumerus -39.2643 -3.25239 91.6623
lradius 52.8396
lwrist -2.95759
lhand -15.3421 4.33031
lfingers 7.12502
lthumb 10.8348 34.0308
rfemur -13.868 3.43678 27.9444
rtibia 28.9117
rfoot -29.5165 -12.9562
rtoes 9.26808
lfemur -58.7782 -1.65431 -15.9039
ltibia 58.5115
lfoot -15.9753 -1.08333
ltoes -10.3793
299
root 1.80419 16.8163 20.0994 -161.796 -5.97268 182.524
lowerback 10.3503 0.558868 4.9987
upperback -0.676932 1.38116 3.41408
thorax -6.49951 0.476338 0.572173
lowerneck -16.6651 -3.47751 -4.28179
upperneck 8.10429 -3.92847 1.5044
head 5.24948 -1.96304 0.794042
rclavicle -3.18055e-015 -4.77083e-015
rhumerus -34.419 2.25557 -84.357
rradius 48.9642
rwrist -6.38491
rhand -19.8207 -11.5236
rfingers 7.12502
rthumb 6.51288 -41.4034
lclavicle -3.18055e-015 -4.77083e-015
lhumerus -39.3575 -3.16666 91.6224
lradius 52.8841
lwrist -2.74259
lhand -15.5205 4.04497
lfingers 7.12502
lthumb 10.6627 33.7544
rfemur -13.0619 3.44348 28.2337
rtibia 28.3396
rfoot -29.8249 -13.2373
rtoes 8.8976
lfemur -59.6815 -1.66052 -15.8829
ltibia 57.7898
lfoot -16.1013 -1.2109
ltoes -10.4215
300
root 1.80545 16.7678 19.9085 -161.63 -6.12541 182.65
lowerback 10.4576 0.606539 5.15553
upperback -0.608518 1.46249 3.43898
thorax -6.48236 0.508825 0.497188
lowerneck -16.6896 -3.569 -4.38622
upperneck 7.74624 -4.03902 1.55975
head 5.14669 -2.01784 0.819629
rclavicle 1.35174e-014 3.73715e-014
rhumerus -34.1383 2.65035 -84.5234
rradius 50.2124
rwrist -6.77602
rhand -19.9883 -11.4985
rfingers 7.12502
rthumb 6.35109 -41.3833
lclavicle 1.35174e-014 3.73715e-014
lhumerus -39.4656 -3.09246 91.5816
lradius 52.9668
lwrist -2.50434
lhand -15.6892 3.7791
lfingers 7.12502
lthumb 10.5 33.4969
rfemur -12.2383 3.42726 28.5324
rtibia 27.7638
rfoot -30.1357 -13.4892
rtoes 8.4965
lfemur -60.5764 -1.67131 -15.8488
ltibia 57.2285
lfoot -16.2119 -1.45005
ltoes -10.4678
301
root 1.80604 16.7158 19.7148 -161.473 -6.28424 182.781
lowerback 10.5713 0.654052 5.31906
upperback -0.531339 1.54401 3.46475
thorax -6.45893 0.541197 0.41918
lowerneck -16.7219 -3.66351 -4.49228
upperneck 7.37818 -4.15472 1.62161
head 5.04261 -2.07517 0.847075
rclavicle 9.54166e-015 1.51076e-014
rhumerus -33.866 3.03739 -84.6809
rradius 51.5414
rwrist -7.16056
rhand -20.2009 -11.4869
rfingers 7.12502
rthumb 6.14584 -41.3778
lclavicle 9.54166e-015 1.51076e-014
lhumerus -39.5998 -3.0379 91.5425
lradius 53.1068
lwrist -2.24093
lhand -15.8369 3.54855
lfingers 7.12502
lthumb 10.3575 33.2735
rfemur -11.3896 3.40513 28.8385
rtibia 27.1837
rfoot -30.4489 -13.733
rtoes 8.06713
lfemur -61.4586 -1.69183 -15.8027
ltibia 56.8457
lfoot -16.3149 -1.79001
ltoes -10.5321
